<svg width="21" height="20" viewBox="0 0 21 20" fill="none" xmlns="http://www.w3.org/2000/svg">
<rect width="21" height="20" fill="#1E1E1E"/>
<g clip-path="url(#clip0_0_1)">
<rect width="1920" height="3359" transform="translate(-1268 -1674)" fill="#F2F2F2"/>
<path d="M10.2893 6.66525C8.4531 6.66525 6.95461 8.16376 6.95461 10C6.95461 11.8362 8.4531 13.3348 10.2893 13.3348C12.1255 13.3348 13.624 11.8362 13.624 10C13.624 8.16376 12.1255 6.66525 10.2893 6.66525ZM20.2909 10C20.2909 8.61907 20.3034 7.25064 20.2258 5.87221C20.1483 4.27113 19.783 2.85017 18.6123 1.67938C17.439 0.506085 16.0206 0.14334 14.4195 0.065788C13.0386 -0.0117644 11.6702 0.000744113 10.2918 0.000744113C8.9109 0.000744113 7.5425 -0.0117644 6.16409 0.065788C4.56304 0.14334 3.14211 0.508587 1.97134 1.67938C0.798068 2.85267 0.43533 4.27113 0.357779 5.87221C0.280228 7.25314 0.292736 8.62157 0.292736 10C0.292736 11.3784 0.280228 12.7494 0.357779 14.1278C0.43533 15.7289 0.80057 17.1498 1.97134 18.3206C3.14461 19.4939 4.56304 19.8567 6.16409 19.9342C7.545 20.0118 8.9134 19.9993 10.2918 19.9993C11.6727 19.9993 13.0411 20.0118 14.4195 19.9342C16.0206 19.8567 17.4415 19.4914 18.6123 18.3206C19.7855 17.1473 20.1483 15.7289 20.2258 14.1278C20.3059 12.7494 20.2909 11.3809 20.2909 10V10ZM10.2893 15.131C7.44994 15.131 5.15843 12.8394 5.15843 10C5.15843 7.16058 7.44994 4.86903 10.2893 4.86903C13.1287 4.86903 15.4202 7.16058 15.4202 10C15.4202 12.8394 13.1287 15.131 10.2893 15.131ZM15.6303 5.8572C14.9674 5.8572 14.432 5.32184 14.432 4.65889C14.432 3.99594 14.9674 3.46058 15.6303 3.46058C16.2932 3.46058 16.8286 3.99594 16.8286 4.65889C16.8288 4.81631 16.7979 4.97222 16.7378 5.1177C16.6776 5.26317 16.5894 5.39535 16.4781 5.50666C16.3668 5.61798 16.2346 5.70624 16.0891 5.76639C15.9436 5.82654 15.7877 5.8574 15.6303 5.8572V5.8572Z" fill="#3E3E3E"/>
</g>
<defs>
<clipPath id="clip0_0_1">
<rect width="1920" height="3359" fill="white" transform="translate(-1268 -1674)"/>
</clipPath>
</defs>
</svg>
