<svg width="20" height="20" viewBox="0 0 20 20" fill="none" xmlns="http://www.w3.org/2000/svg">
<rect width="20" height="20" fill="#1E1E1E"/>
<g clip-path="url(#clip0_0_1)">
<rect width="1920" height="3359" transform="translate(-1412 -1674)" fill="#F2F2F2"/>
<mask id="path-1-inside-1_0_1" fill="white">
<path d="M18.5043 4.62488C15.5125 -0.000152887 9.40435 -1.37516 4.6674 1.49986C0.0551144 4.37488 -1.44076 10.6249 1.55099 15.25L1.80031 15.625L0.803054 19.375L4.54275 18.375L4.91672 18.625C6.53725 19.5 8.28244 20 10.0276 20C11.8975 20 13.7673 19.5 15.3879 18.5C20.0002 15.5 21.3714 9.37492 18.5043 4.62488V4.62488ZM15.8865 14.25C15.3879 15 14.7646 15.5 13.892 15.625C13.3934 15.625 12.7701 15.875 10.2769 14.875C8.15779 13.875 6.4126 12.2499 5.16603 10.3749C4.41809 9.49992 4.04412 8.37491 3.91947 7.2499C3.91947 6.2499 4.29344 5.37489 4.91672 4.74988C5.16603 4.49988 5.41534 4.37488 5.66466 4.37488H6.28794C6.53725 4.37488 6.78657 4.37488 6.91122 4.87488C7.16053 5.49989 7.78382 6.9999 7.78382 7.1249C7.90847 7.2499 7.90847 7.49991 7.78382 7.62491C7.90847 7.87491 7.78382 8.12491 7.65916 8.24991C7.5345 8.37491 7.40985 8.62491 7.28519 8.74991C7.03588 8.87492 6.91122 9.12492 7.03588 9.37492C7.5345 10.1249 8.15779 10.8749 8.78107 11.4999C9.52901 12.1249 10.2769 12.6249 11.1495 12.9999C11.3989 13.1249 11.6482 13.1249 11.7728 12.8749C11.8975 12.6249 12.5208 11.9999 12.7701 11.7499C13.0194 11.4999 13.144 11.4999 13.3934 11.6249L15.3879 12.6249C15.6372 12.7499 15.8865 12.8749 16.0111 12.9999C16.1358 13.3749 16.1358 13.875 15.8865 14.25V14.25Z"/>
</mask>
<path d="M18.5043 4.62488C15.5125 -0.000152887 9.40435 -1.37516 4.6674 1.49986C0.0551144 4.37488 -1.44076 10.6249 1.55099 15.25L1.80031 15.625L0.803054 19.375L4.54275 18.375L4.91672 18.625C6.53725 19.5 8.28244 20 10.0276 20C11.8975 20 13.7673 19.5 15.3879 18.5C20.0002 15.5 21.3714 9.37492 18.5043 4.62488V4.62488ZM15.8865 14.25C15.3879 15 14.7646 15.5 13.892 15.625C13.3934 15.625 12.7701 15.875 10.2769 14.875C8.15779 13.875 6.4126 12.2499 5.16603 10.3749C4.41809 9.49992 4.04412 8.37491 3.91947 7.2499C3.91947 6.2499 4.29344 5.37489 4.91672 4.74988C5.16603 4.49988 5.41534 4.37488 5.66466 4.37488H6.28794C6.53725 4.37488 6.78657 4.37488 6.91122 4.87488C7.16053 5.49989 7.78382 6.9999 7.78382 7.1249C7.90847 7.2499 7.90847 7.49991 7.78382 7.62491C7.90847 7.87491 7.78382 8.12491 7.65916 8.24991C7.5345 8.37491 7.40985 8.62491 7.28519 8.74991C7.03588 8.87492 6.91122 9.12492 7.03588 9.37492C7.5345 10.1249 8.15779 10.8749 8.78107 11.4999C9.52901 12.1249 10.2769 12.6249 11.1495 12.9999C11.3989 13.1249 11.6482 13.1249 11.7728 12.8749C11.8975 12.6249 12.5208 11.9999 12.7701 11.7499C13.0194 11.4999 13.144 11.4999 13.3934 11.6249L15.3879 12.6249C15.6372 12.7499 15.8865 12.8749 16.0111 12.9999C16.1358 13.3749 16.1358 13.875 15.8865 14.25V14.25Z" fill="#3E3E3E"/>
<path d="M4.6674 1.49986L-12.9735 -27.5656L-13.1464 -27.4606L-13.3181 -27.3536L4.6674 1.49986ZM1.55099 15.25L-26.997 33.7165L-26.881 33.8959L-26.7627 34.0737L1.55099 15.25ZM1.80031 15.625L34.6583 24.363L38.5953 9.55832L30.114 -3.19881L1.80031 15.625ZM0.803054 19.375L-32.0549 10.637L-47.1478 67.3918L9.58617 52.221L0.803054 19.375ZM4.54275 18.375L23.4385 -9.89072L10.6363 -18.449L-4.24037 -14.471L4.54275 18.375ZM4.91672 18.625L-13.979 46.8907L-12.647 47.7812L-11.2372 48.5424L4.91672 18.625ZM15.3879 18.5L33.2429 47.4344L33.5872 47.2219L33.9263 47.0013L15.3879 18.5ZM13.892 15.625V49.625H16.3149L18.7133 49.2814L13.892 15.625ZM10.2769 14.875L-4.23288 45.6234L-3.31865 46.0548L-2.3804 46.4311L10.2769 14.875ZM5.16603 10.3749L33.4797 -8.44885L32.3439 -10.1573L31.0109 -11.7168L5.16603 10.3749ZM3.91947 7.2499H-30.0805V9.12784L-29.8737 10.9944L3.91947 7.2499ZM6.91122 4.87488L-26.079 13.0997L-25.522 15.3337L-24.669 17.4722L6.91122 4.87488ZM7.78382 7.1249H-26.2162V21.1807L-16.291 31.1333L7.78382 7.1249ZM7.78382 7.62491L-16.291 -16.3835L-33.55 0.92322L-22.6435 22.7966L7.78382 7.62491ZM7.28519 8.74991L22.524 39.1436L27.4605 36.6685L31.36 32.7584L7.28519 8.74991ZM7.03588 9.37492L-23.3914 24.5466L-22.4481 26.4384L-21.2778 28.1987L7.03588 9.37492ZM8.78107 11.4999L-15.2937 35.5084L-14.2044 36.6007L-13.0206 37.5899L8.78107 11.4999ZM11.1495 12.9999L26.3884 -17.3938L25.4936 -17.8424L24.574 -18.2376L11.1495 12.9999ZM16.0111 12.9999L48.2753 2.27488L45.7465 -5.33223L40.0859 -11.0085L16.0111 12.9999ZM47.0522 -13.8417C33.9424 -34.1085 7.29351 -39.8663 -12.9735 -27.5656L22.3083 30.5653C11.5152 37.116 -2.9174 34.1082 -10.0437 23.0914L47.0522 -13.8417ZM-13.3181 -27.3536C-33.6675 -14.669 -40.5549 12.757 -26.997 33.7165L30.099 -3.2166C37.6733 8.49285 33.7777 23.4188 22.6529 30.3533L-13.3181 -27.3536ZM-26.7627 34.0737L-26.5134 34.4487L30.114 -3.19881L29.8647 -3.57381L-26.7627 34.0737ZM-31.0577 6.88698L-32.0549 10.637L33.661 28.113L34.6583 24.363L-31.0577 6.88698ZM9.58617 52.221L13.3259 51.2209L-4.24037 -14.471L-7.98006 -13.471L9.58617 52.221ZM-14.353 46.6407L-13.979 46.8907L23.8125 -9.64072L23.4385 -9.89072L-14.353 46.6407ZM-11.2372 48.5424C-5.48303 51.6494 1.77002 54 10.0276 54V-14C14.7949 -14 18.5575 -12.6494 21.0706 -11.2924L-11.2372 48.5424ZM10.0276 54C17.8907 54 25.9953 51.9068 33.2429 47.4344L-2.46713 -10.4344C1.53938 -12.9068 5.90428 -14 10.0276 -14V54ZM33.9263 47.0013C54.1597 33.8407 59.7966 7.24052 47.6128 -12.9449L-10.6042 22.1946C-17.0538 11.5093 -14.1594 -2.84078 -3.15058 -10.0013L33.9263 47.0013ZM-12.4272 -4.57382C-11.0313 -6.67352 -8.612 -9.71649 -4.76875 -12.4693C-0.70903 -15.3771 4.04343 -17.3113 9.07064 -18.0315L18.7133 49.2814C31.8532 47.3991 40.0494 39.3171 44.2002 33.0737L-12.4272 -4.57382ZM13.892 -18.375C12.5366 -18.375 11.4381 -18.2914 11.3174 -18.283C10.9334 -18.256 11.4494 -18.2944 11.8833 -18.3147C13.2208 -18.3771 14.9128 -18.3654 16.8158 -18.1409C20.2768 -17.7326 22.5418 -16.8386 22.9343 -16.6812L-2.3804 46.4311C0.505248 47.5886 4.3284 48.8575 8.84897 49.3908C11.2818 49.6778 13.3789 49.6895 15.0514 49.6115C15.6529 49.5834 16.3188 49.5333 16.0741 49.5505C16.0384 49.553 15.7855 49.571 15.4515 49.5872C15.1035 49.6042 14.5606 49.625 13.892 49.625V-18.375ZM24.7868 -15.8735C28.9567 -13.9057 31.7439 -11.0598 33.4797 -8.44885L-23.1477 29.1987C-18.9187 35.5596 -12.6411 41.6556 -4.23288 45.6234L24.7868 -15.8735ZM31.0109 -11.7168C35.9639 -5.92225 37.336 0.106556 37.7126 3.50545L-29.8737 10.9944C-29.2478 16.6433 -27.1278 24.9221 -20.6788 32.4666L31.0109 -11.7168ZM37.9195 7.2499C37.9195 14.9497 34.9338 22.7996 28.9915 28.7583L-19.1581 -19.2586C-26.3469 -12.0498 -30.0805 -2.44994 -30.0805 7.2499H37.9195ZM28.9915 28.7583C25.5457 32.2136 17.6477 38.3749 5.66466 38.3749V-29.6251C-6.817 -29.6251 -15.2137 -23.2138 -19.1581 -19.2586L28.9915 28.7583ZM5.66466 38.3749H6.28794V-29.6251H5.66466V38.3749ZM6.28794 38.3749C8.1542 38.3749 -1.20403 39.1253 -10.2575 33.9376C-21.2852 27.6186 -24.9447 17.6495 -26.079 13.0997L39.9014 -3.34993C38.6424 -8.39971 34.796 -18.6188 23.5502 -25.0628C18.521 -27.9445 13.8352 -28.9481 10.8358 -29.3362C9.36574 -29.5264 8.16742 -29.5847 7.45448 -29.6072C7.08699 -29.6188 6.78719 -29.6225 6.60153 -29.6239C6.50653 -29.6247 6.42826 -29.6249 6.37793 -29.625C6.33128 -29.6251 6.29017 -29.6251 6.28794 -29.6251V38.3749ZM-24.669 17.4722C-24.5598 17.7458 -24.4241 18.0795 -24.3536 18.2534C-24.2587 18.4873 -24.1916 18.6532 -24.1392 18.7847C-24.0672 18.9652 -24.1068 18.8708 -24.1937 18.6367C-24.2222 18.5598 -24.3909 18.1073 -24.5935 17.481C-24.6853 17.197 -24.9132 16.4828 -25.1538 15.5463C-25.2739 15.079 -25.4773 14.248 -25.6688 13.1957C-25.7671 12.6553 -25.8906 11.9027 -25.9945 10.9986C-26.0928 10.1426 -26.2162 8.79012 -26.2162 7.1249H41.7838C41.7838 4.11972 41.3738 1.79769 41.2328 1.02274C41.039 -0.0426252 40.832 -0.889148 40.7073 -1.37452C40.4575 -2.34701 40.216 -3.10686 40.1066 -3.44503C39.869 -4.17979 39.6496 -4.77489 39.5587 -5.01974C39.3472 -5.58974 39.1362 -6.12164 39.0212 -6.40987C38.8867 -6.74715 38.7512 -7.08128 38.6591 -7.30828C38.6073 -7.43595 38.5712 -7.52482 38.5374 -7.60842C38.503 -7.69343 38.491 -7.72345 38.4914 -7.72238L-24.669 17.4722ZM-16.291 31.1333C-24.0309 23.372 -26.1227 14.003 -26.1227 7.3749C-26.1227 0.746818 -24.0309 -8.62216 -16.291 -16.3835L31.8586 31.6333C39.7232 23.747 41.8773 14.1905 41.8773 7.3749C41.8773 0.559316 39.7232 -8.99716 31.8586 -16.8835L-16.291 31.1333ZM-22.6435 22.7966C-26.9577 14.1444 -26.7877 5.35017 -24.8836 -1.33238C-23.1495 -7.41884 -19.9258 -12.2386 -16.4156 -15.7585L31.7339 32.2583C37.2012 26.776 47.5201 11.1227 38.2111 -7.54681L-22.6435 22.7966ZM-16.4156 -15.7585C-16.9195 -15.2532 -17.3577 -14.7825 -17.7288 -14.3667C-18.1008 -13.95 -18.4255 -13.566 -18.7012 -13.229C-19.2422 -12.5679 -19.668 -11.9978 -19.9576 -11.5986C-20.2498 -11.1956 -20.4782 -10.8628 -20.61 -10.6688C-20.6791 -10.5669 -20.7359 -10.4821 -20.7727 -10.4272C-20.807 -10.3757 -20.8376 -10.3298 -20.8415 -10.3239C-20.8531 -10.3064 -20.8382 -10.3289 -20.8194 -10.357C-20.7983 -10.3886 -20.757 -10.4502 -20.7035 -10.5291C-20.6029 -10.6772 -20.4056 -10.9652 -20.1445 -11.3251C-19.8862 -11.6814 -19.4915 -12.2104 -18.9817 -12.8335C-18.7216 -13.1514 -18.4124 -13.5172 -18.0561 -13.9164C-17.7005 -14.3147 -17.2779 -14.7688 -16.7896 -15.2585L31.36 32.7584C31.8639 32.253 32.302 31.7823 32.6732 31.3665C33.0451 30.9498 33.3699 30.5658 33.6456 30.2289C34.1866 29.5677 34.6124 28.9976 34.9019 28.5984C35.1941 28.1955 35.4226 27.8626 35.5543 27.6686C35.6235 27.5667 35.6803 27.482 35.717 27.427C35.7514 27.3756 35.7819 27.3297 35.7859 27.3237C35.7975 27.3062 35.7826 27.3287 35.7638 27.3568C35.7426 27.3885 35.7014 27.45 35.6478 27.5289C35.5472 27.6771 35.35 27.965 35.0889 28.325C34.8305 28.6812 34.4359 29.2103 33.926 29.8334C33.6659 30.1513 33.3568 30.517 33.0004 30.9162C32.6448 31.3146 32.2223 31.7687 31.7339 32.2583L-16.4156 -15.7585ZM-7.95366 -21.6438C-13.9627 -18.631 -20.5081 -13.0877 -24.244 -4.34654C-28.2668 5.06598 -27.842 15.6208 -23.3914 24.5466L37.4632 -5.79679C41.7891 2.87908 42.2139 13.1839 38.2846 22.3776C34.6422 30.9 28.2838 36.2558 22.524 39.1436L-7.95366 -21.6438ZM-21.2778 28.1987C-19.4483 30.9506 -17.3753 33.421 -15.2937 35.5084L32.8558 -12.5085C33.3258 -12.0372 33.7355 -11.5811 34.1037 -11.1341C34.4691 -10.6906 34.8932 -10.1353 35.3496 -9.44886L-21.2778 28.1987ZM-13.0206 37.5899C-10.4786 39.7141 -6.94327 42.2312 -2.27496 44.2375L24.574 -18.2376C27.4972 -16.9813 29.5366 -15.4642 30.5828 -14.59L-13.0206 37.5899ZM-4.08931 43.3937C-0.630375 45.1279 6.75304 48.1063 16.3292 46.7345C28.1198 45.0455 37.4457 37.5817 42.2001 28.0467L-18.6545 -2.29677C-14.0247 -11.5818 -4.8858 -18.9206 6.68664 -20.5784C16.0447 -21.9189 23.1788 -19.003 26.3884 -17.3938L-4.08931 43.3937ZM42.2001 28.0467C41.1046 30.2436 40.013 31.8162 39.5668 32.4448C39.0131 33.225 38.5404 33.8169 38.2664 34.152C37.7257 34.8132 37.3022 35.2723 37.1715 35.4135C36.8888 35.7187 36.6861 35.9175 36.8449 35.7584L-11.3047 -12.2585C-11.3953 -12.1677 -12.0343 -11.5313 -12.7221 -10.7886C-13.0554 -10.4286 -13.6736 -9.75084 -14.3741 -8.89427C-14.5643 -8.66165 -16.7845 -6.04703 -18.6545 -2.29677L42.2001 28.0467ZM36.8449 35.7584C36.0208 36.5847 29.6822 43.244 18.6862 45.0817C7.25776 46.9917 -1.23416 42.3252 -1.84549 42.0186L28.6322 -18.7688C27.7716 -19.2003 19.0927 -23.9293 7.47719 -21.9881C-3.70578 -20.1191 -10.2313 -13.3349 -11.3047 -12.2585L36.8449 35.7584ZM-1.84549 42.0186L0.149015 43.0187L30.6267 -17.7688L28.6322 -18.7688L-1.84549 42.0186ZM0.149015 43.0187C0.479643 43.1844 -0.289928 42.8098 -1.15753 42.3127C-1.65567 42.0272 -2.52005 41.5145 -3.55604 40.7918C-4.52617 40.1151 -6.21177 38.8654 -8.06363 37.0084L40.0859 -11.0085C36.6908 -14.413 33.3265 -16.3001 32.65 -16.6878C32.0208 -17.0483 31.4972 -17.3234 31.2007 -17.4769C30.913 -17.6258 30.6528 -17.7557 30.6267 -17.7688L0.149015 43.0187ZM-16.253 23.725C-17.5429 19.8444 -18.138 15.6034 -17.825 11.2092C-17.5093 6.77649 -16.1673 1.05185 -12.4272 -4.57382L44.2002 33.0737C51.8596 21.5528 50.6569 9.43956 48.2753 2.27488L-16.253 23.725Z" fill="black" mask="url(#path-1-inside-1_0_1)"/>
</g>
<defs>
<clipPath id="clip0_0_1">
<rect width="1920" height="3359" fill="white" transform="translate(-1412 -1674)"/>
</clipPath>
</defs>
</svg>
